<svg width="26" height="26" viewBox="0 0 26 26" fill="none" xmlns="http://www.w3.org/2000/svg">
<path d="M16.8769 1.66607C15.3897 1.10668 14.526 0.959897 12.9275 1.00877C10.7652 1.02949 9.7048 1.20014 8.17759 1.88517C6.73384 2.49732 5.96766 3.02219 4.65517 4.18569C3.52527 5.29039 2.94854 6.07064 2.04005 7.80081C1.38929 9.39043 1.16426 10.4078 1.02602 12.4566C0.946092 13.9236 1.04962 14.7681 1.34624 16.2909C1.86239 18.0201 2.28071 18.9318 3.26755 20.4537C4.25638 21.9007 4.98467 22.6188 6.68323 23.6854C7.56583 24.2952 8.1611 24.589 9.45846 25C9.67883 24.9626 9.79332 24.9105 9.93879 24.6166V21.4397C9.85135 21.4397 9.79895 21.4441 9.67194 21.4944C8.82121 21.5887 8.50229 21.6038 8.28433 21.5492C7.49834 21.4197 7.06888 21.3177 6.41638 20.8371C6.06455 20.3239 5.8883 20.0286 5.6692 19.4678C5.28167 18.7651 5.06671 18.414 4.70854 18.2627C4.4632 18.0764 4.32369 17.9512 4.0681 17.6602C4.06588 17.3869 4.10854 17.3175 4.22821 17.2768C4.49899 17.1567 4.7293 17.1957 5.18887 17.3316C5.80315 17.6599 6.10968 17.9407 6.57649 18.6462C7.02658 19.4074 7.39903 19.7179 8.49781 19.8512C9.37335 19.906 9.71415 19.8591 9.93879 19.5773C10.2107 18.8439 10.3637 18.4998 10.686 17.9889C9.566 17.8003 8.97189 17.6667 7.96411 17.3863C6.96017 16.8249 6.52633 16.443 5.98942 15.6336C5.53169 14.3829 5.40185 13.6356 5.34898 12.2375C5.53929 11.0037 5.78226 10.4027 6.46975 9.49882C6.31722 8.91689 6.26374 8.59354 6.2029 8.01991C6.2716 7.39471 6.25093 7.07171 6.46975 6.37667C6.6773 6.03681 6.78429 5.93588 6.95008 5.99325L7.804 6.26712C8.57167 6.53494 9.09822 6.84702 10.0455 7.41739C10.7586 7.19768 11.177 7.09888 11.9669 6.97919C12.6491 6.94525 12.9319 6.93516 13.3545 6.92442C15.1454 7.12647 15.7164 7.2208 16.1297 7.36261C17.0748 6.75741 17.6268 6.45471 18.6915 6.04803C19.2708 6.03423 19.4964 6.04073 19.5454 6.1028C19.6706 6.63357 19.7407 6.90478 19.8656 7.36261C19.8875 7.69704 19.8177 8.20988 19.5987 9.49882C19.994 10.0639 20.2162 10.3557 20.6128 10.8682C20.7812 11.3999 20.826 11.8623 20.8263 12.9496C20.5751 14.842 20.2533 15.5808 19.492 16.5647C18.1524 17.3854 17.1939 17.6523 15.2758 17.9341C15.4443 18.1729 15.5406 18.3075 15.8095 18.5914C15.9436 18.9113 15.9969 18.9113 16.0763 19.413V24.507C16.1796 24.9088 16.3161 24.9903 16.6634 24.9452C17.2692 24.9063 17.4849 24.7564 17.9443 24.507C18.4645 24.265 18.7459 24.1109 19.2252 23.795C20.3155 23.1117 20.8877 22.631 21.7869 21.6588C22.6804 20.6414 23.1151 20.0334 23.7082 18.8653C24.2838 17.6053 24.5333 16.8781 24.7756 15.524C24.9844 14.6603 25.0231 14.1544 24.9891 13.2235C24.9633 12.3212 24.9383 11.8227 24.829 10.9777C24.5948 9.77596 24.3905 9.07498 23.815 7.74604C23.2066 6.47979 22.7581 5.84741 21.7869 4.84299C21.0981 3.98744 20.5674 3.51768 19.2252 2.70678C18.3981 2.20441 17.902 1.95727 16.8769 1.66607Z" fill="#0080FF" stroke="#0080FF" stroke-width="0.1"/>
</svg>
