<svg width="160" height="160" viewBox="0 0 160 160" fill="none" xmlns="http://www.w3.org/2000/svg">
<path fill-rule="evenodd" clip-rule="evenodd" d="M80 160C124.183 160 160 124.183 160 80C160 51.631 145.234 26.7109 122.968 12.5064C106.121 15.8466 70.3959 26.2107 64 43C59.6489 54.4216 72.0111 64.2162 84.7566 74.3145C95.4453 82.7832 106.404 91.4655 108 101.5C111.474 123.334 98.6951 131.379 85.3052 139.808L85 140C84.5944 140.255 84.2005 140.504 83.8174 140.745C71.4652 148.527 70.4311 149.179 52.0535 154.983C60.7533 158.227 70.1696 160 80 160ZM37.0327 147.494C14.7665 133.289 0 108.369 0 80C0 35.8172 35.8172 0 80 0C89.8299 0 99.2457 1.7729 107.945 5.01639C74.4743 15.0176 50.9613 31.0855 53.5 47C55.6728 60.6204 61.007 66.1777 63.9277 69.2205C64.6046 69.9257 65.1518 70.4958 65.5 71C66.0714 71.8273 68.3136 73.4744 71.3933 75.7367C83.6284 84.7242 109.081 103.421 95.5 119C81.9112 134.587 50.2191 144.983 37.0327 147.494Z" fill="#0080FF"/>
</svg>
