<svg width="305" height="628" viewBox="0 0 305 628" fill="none" xmlns="http://www.w3.org/2000/svg">
<path d="M304.5 0.5H166.5C144.288 10.9563 119.097 27.7766 117 28.5C114.903 29.2234 87.746 46.8792 73.5 59.5C36.5463 95.5618 20.4725 122.176 26.5 180.5C39.8903 222.241 50.6007 244.428 85.5 278C150.097 331.324 196.813 368.596 206 383C249.197 440.732 254.116 472.867 206 529.5C135.611 578.534 89.1093 598.347 0.5 627.5H135.5C186.645 602.208 206.297 588.721 237 565C320.135 467.972 302.012 413.961 207 318C157.913 280.04 129.388 259.624 91.5 212C76.5839 182.793 64.392 167.954 80 126.5C100.18 98.7197 101.429 84.8529 178 47.5C223.205 29.7043 245.424 20.1433 304.5 0.5Z" fill="#E6F3FF" stroke="#E6F3FF"/>
</svg>
